[h264 @ 0x55a4c6b49d00] Reinit context to 1280x720, pix_fmt: yuv420p
Input #0, mov,mp4,m4a,3gp,3g2,mj2, from '/var/www/html/project/media/video/original/IMG_4762.MP4':
  Metadata:
    major_brand     : mp42
    minor_version   : 1
    compatible_brands: isommp41mp42
    creation_time   : 2024-05-12T12:57:26.000000Z
  Duration: 00:01:05.63, start: 0.000000, bitrate: 3053 kb/s
    Stream #0:0(und): Video: h264 (High), 1 reference frame (avc1 / 0x31637661), yuv420p(tv, bt709, left), 1280x720, 2985 kb/s, SAR 1:1 DAR 16:9, 30 fps, 30 tbr, 600 tbn, 1200 tbc (default)
    Metadata:
      creation_time   : 2024-05-12T12:57:26.000000Z
      handler_name    : Core Media Video
    Stream #0:1(und): Audio: aac (LC) (mp4a / 0x6134706D), 44100 Hz, stereo, fltp, 63 kb/s (default)
    Metadata:
      creation_time   : 2024-05-12T12:57:26.000000Z
      handler_name    : Core Media Audio
[h264 @ 0x55a4c6b76840] Reinit context to 1280x720, pix_fmt: yuv420p
Input #1, mov,mp4,m4a,3gp,3g2,mj2, from '/var/www/html/project/static/images/templates/Codino.mp4':
  Metadata:
    major_brand     : mp42
    minor_version   : 1
    compatible_brands: isommp41mp42
    creation_time   : 2021-07-11T07:02:58.000000Z
  Duration: 00:00:02.00, start: 0.000000, bitrate: 1007 kb/s
    Stream #1:0(ita): Audio: aac (LC) (mp4a / 0x6134706D), 44100 Hz, stereo, fltp, 102 kb/s (default)
    Metadata:
      creation_time   : 2021-07-11T07:02:58.000000Z
      handler_name    : Core Media Audio
    Stream #1:1(und): Video: h264 (High), 1 reference frame (avc1 / 0x31637661), yuv420p(tv, bt709, progressive, left), 1280x720 [SAR 1:1 DAR 16:9], 813 kb/s, 25 fps, 25 tbr, 25k tbn, 50k tbc (default)
    Metadata:
      creation_time   : 2021-07-11T07:02:58.000000Z
      handler_name    : Core Media Video
[Parsed_scale_0 @ 0x55a4c6bc51c0] w:1280 h:720 flags:'bilinear' interl:0
[Parsed_scale_2 @ 0x55a4c6bb7080] w:1280 h:720 flags:'bilinear' interl:0
Stream mapping:
  Stream #0:0 (h264) -> scale
  Stream #0:1 (aac) -> concat:in0:a0
  Stream #1:0 (aac) -> concat:in1:a0
  Stream #1:1 (h264) -> scale
  concat:out:v0 -> Stream #0:0 (libx264)
  concat:out:a0 -> Stream #0:1 (aac)
Press [q] to stop, [?] for help
[h264 @ 0x55a4c6b98d40] Reinit context to 1280x720, pix_fmt: yuv420p
[h264 @ 0x55a4c6fd0f40] Reinit context to 1280x720, pix_fmt: yuv420p
[Parsed_scale_0 @ 0x55a4c7ebdf40] w:1280 h:720 flags:'bilinear' interl:0
[Parsed_scale_2 @ 0x55a4c7ec6180] w:1280 h:720 flags:'bilinear' interl:0
[graph 0 input from stream 0:0 @ 0x55a4c7ec9380] w:1280 h:720 pixfmt:yuv420p tb:1/600 fr:30/1 sar:1/1 sws_param:flags=2
[graph 0 input from stream 1:1 @ 0x55a4c7eca3c0] w:1280 h:720 pixfmt:yuv420p tb:1/25000 fr:25/1 sar:1/1 sws_param:flags=2
[graph_0_in_0_1 @ 0x55a4c7ecb380] tb:1/44100 samplefmt:fltp samplerate:44100 chlayout:0x3
[graph_0_in_1_0 @ 0x55a4c7ecc4c0] tb:1/44100 samplefmt:fltp samplerate:44100 chlayout:0x3
[Parsed_scale_0 @ 0x55a4c7ebdf40] w:1280 h:720 fmt:yuv420p sar:1/1 -> w:1280 h:720 fmt:yuv420p sar:1/1 flags:0x2
[Parsed_setsar_1 @ 0x55a4c7ec5940] w:1280 h:720 sar:1/1 dar:16/9 -> sar:1/1 dar:16/9
[Parsed_scale_2 @ 0x55a4c7ec6180] w:1280 h:720 fmt:yuv420p sar:1/1 -> w:1280 h:720 fmt:yuv420p sar:1/1 flags:0x2
[Parsed_setsar_3 @ 0x55a4c7ec6680] w:1280 h:720 sar:1/1 dar:16/9 -> sar:1/1 dar:16/9
[libx264 @ 0x55a4c6bb9340] using SAR=1/1
[libx264 @ 0x55a4c6bb9340] using cpu capabilities: MMX2 SSE2Fast SSSE3 SSE4.2 AVX FMA3 BMI2 AVX2
[libx264 @ 0x55a4c6bb9340] profile High, level 3.1
[libx264 @ 0x55a4c6bb9340] 264 - core 155 r2917 0a84d98 - H.264/MPEG-4 AVC codec - Copyleft 2003-2018 - http://www.videolan.org/x264.html - options: cabac=1 ref=1 deblock=1:0:0 analyse=0x3:0x113 me=hex subme=2 psy=1 psy_rd=1.00:0.00 mixed_ref=0 me_range=16 chroma_me=1 trellis=0 8x8dct=1 cqm=0 deadzone=21,11 fast_pskip=1 chroma_qp_offset=0 threads=22 lookahead_threads=5 sliced_threads=0 nr=0 decimate=1 interlaced=0 bluray_compat=0 constrained_intra=0 bframes=3 b_pyramid=2 b_adapt=1 b_bias=0 direct=1 weightb=1 open_gop=0 weightp=1 keyint=250 keyint_min=25 scenecut=40 intra_refresh=0 rc_lookahead=10 rc=crf mbtree=1 crf=18.0 qcomp=0.60 qpmin=0 qpmax=69 qpstep=4 ip_ratio=1.40 aq=1:1.00
Output #0, mp4, to '/var/www/html/project/media/video/watermarks/IMG_4762.mp4':
  Metadata:
    major_brand     : mp42
    minor_version   : 1
    compatible_brands: isommp41mp42
    encoder         : Lavf58.29.100
    Stream #0:0: Video: h264 (libx264), 1 reference frame (avc1 / 0x31637661), yuv420p(progressive), 1280x720 [SAR 1:1 DAR 16:9], q=-1--1, 30 fps, 15360 tbn, 30 tbc (default)
    Metadata:
      encoder         : Lavc58.54.100 libx264
    Side data:
      cpb: bitrate max/min/avg: 0/0/0 buffer size: 0 vbv_delay: -1
    Stream #0:1: Audio: aac (LC) (mp4a / 0x6134706D), 44100 Hz, stereo, fltp, delay 1024, 128 kb/s (default)
    Metadata:
      encoder         : Lavc58.54.100 aac
[Parsed_concat_4 @ 0x55a4c7ec7380] EOF on in0:v0, 1 streams left in segment.
[Parsed_concat_4 @ 0x55a4c7ec7380] EOF on in0:a0, 0 streams left in segment.
[Parsed_concat_4 @ 0x55a4c7ec7380] Segment finished at pts=65641361
[Parsed_concat_4 @ 0x55a4c7ec7380] EOF on in1:a0, 1 streams left in segment.
[Parsed_concat_4 @ 0x55a4c7ec7380] EOF on in1:v0, 0 streams left in segment.
[Parsed_concat_4 @ 0x55a4c7ec7380] Segment finished at pts=67660046
No more output streams to write to, finishing.
frame= 2019 fps= 91 q=-1.0 Lsize=   34557kB time=00:01:07.66 bitrate=4183.9kbits/s speed=3.04x    
[AVIOContext @ 0x55a4c6b48180] Statistics: 0 seeks, 44 writeouts
video:33429kB audio:1055kB subtitle:0kB other streams:0kB global headers:0kB muxing overhead: 0.210491%
Input file #0 (/var/www/html/project/media/video/original/IMG_4762.MP4):
  Input stream #0:0 (video): 1969 packets read (24495797 bytes); 1969 frames decoded; 
  Input stream #0:1 (audio): 2829 packets read (518096 bytes); 2827 frames decoded (2894784 samples); 
  Total: 4798 packets (25013893 bytes) demuxed
Input file #1 (/var/www/html/project/static/images/templates/Codino.mp4):
  Input stream #1:0 (audio): 89 packets read (26579 bytes); 87 frames decoded (89024 samples); 
  Input stream #1:1 (video): 50 packets read (203365 bytes); 50 frames decoded; 
  Total: 139 packets (229944 bytes) demuxed
Output file #0 (/var/www/html/project/media/video/watermarks/IMG_4762.mp4):
  Output stream #0:0 (video): 2019 frames encoded; 2019 packets muxed (34231604 bytes); 
  Output stream #0:1 (audio): 2914 frames encoded (2983808 samples); 2915 packets muxed (1080548 bytes); 
  Total: 4934 packets (35312152 bytes) muxed
[AVIOContext @ 0x55a4c6bb4ec0] Statistics: 2 seeks, 138 writeouts
[libx264 @ 0x55a4c6bb9340] frame I:9     Avg QP:12.73  size: 59224
[libx264 @ 0x55a4c6bb9340] frame P:558   Avg QP:16.52  size: 30636
[libx264 @ 0x55a4c6bb9340] frame B:1452  Avg QP:19.20  size: 11434
[libx264 @ 0x55a4c6bb9340] consecutive B-frames:  1.8%  5.3%  4.5% 88.4%
[libx264 @ 0x55a4c6bb9340] mb I  I16..4: 33.6% 36.4% 30.0%
[libx264 @ 0x55a4c6bb9340] mb P  I16..4: 16.2% 18.2%  5.6%  P16..4: 23.5% 12.4%  8.4%  0.0%  0.0%    skip:15.7%
[libx264 @ 0x55a4c6bb9340] mb B  I16..4:  2.8%  1.3%  0.4%  B16..8: 25.3% 10.2%  2.5%  direct: 9.9%  skip:47.5%  L0:43.8% L1:41.6% BI:14.6%
[libx264 @ 0x55a4c6bb9340] 8x8 transform intra:41.7% inter:19.6%
[libx264 @ 0x55a4c6bb9340] coded y,uvDC,uvAC intra: 33.3% 43.7% 5.8% inter: 13.8% 16.4% 0.3%
[libx264 @ 0x55a4c6bb9340] i16 v,h,dc,p: 35% 33% 11% 20%
[libx264 @ 0x55a4c6bb9340] i8 v,h,dc,ddl,ddr,vr,hd,vl,hu: 18% 48% 24%  1%  2%  1%  3%  1%  2%
[libx264 @ 0x55a4c6bb9340] i4 v,h,dc,ddl,ddr,vr,hd,vl,hu: 12% 42% 15%  4%  5%  3%  8%  3% 10%
[libx264 @ 0x55a4c6bb9340] i8c dc,h,v,p: 53% 28% 15%  4%
[libx264 @ 0x55a4c6bb9340] Weighted P-Frames: Y:2.0% UV:0.0%
[libx264 @ 0x55a4c6bb9340] kb/s:4049.00
[aac @ 0x55a4c6bbc840] Qavg: 1118.286
[AVIOContext @ 0x55a4c6b51080] Statistics: 129685030 bytes read, 3925 seeks
[AVIOContext @ 0x55a4c6b95f40] Statistics: 1530915 bytes read, 42 seeks
